<svg version="1" xmlns="http://www.w3.org/2000/svg" width="346.667" height="346.667" viewBox="0 0 260.000000 260.000000"><path d="M0 130v130h260V0H0v130zM147.3 28.5c40.5 7.1 71.1 37.7 78.2 78.2 2.2 12.3 2 14.3-.9 14.3-2.2 0-2.3-.5-2.9-7.3-2-23-15-47.2-33.5-61.9-8.3-6.6-23.8-14.6-33.7-17.3-9.3-2.6-33.1-3.2-43.6-1-39.3 7.9-69.2 41-72.6 80.2-.6 6.9-.7 7.3-3.1 7.3-2.5 0-2.5 0-1.8-7.3 4.3-44.4 38.6-80 83.1-86 7.2-1 22.9-.6 30.8.8zM110 98.2c5.7 3 10 8.4 10.7 13.7.5 3.9.4 4.1-2 4.1-2.2 0-2.8-.7-3.7-3.8-1.3-4.7-2.6-6.4-7-9.1-7-4.2-20.1-2.2-24.7 3.8-.7.9-1.3 3.6-1.3 5.9 0 6.7 3.9 10 16.5 14 15.8 5.1 20.7 8.7 22.5 16.5 2.8 12.5-8.1 21.5-24.9 20.5-11-.7-19.2-5.5-22-13.1-1.9-5-1.4-6.7 1.9-6.7 2.4 0 3 .4 3 2.2 0 7.2 8.2 12.7 18.8 12.8 11 0 17.2-4.4 17.2-12.4 0-7.3-3.3-9.9-18.5-15-15.1-5-20.5-9.8-20.5-18.3 0-10.9 8.2-17.2 22.5-17.3 5.4 0 8.1.5 11.5 2.2zm63.4 1.8c7.5 3.8 9.1 6.6 9.1 15.9 0 6.9-.3 8.2-2.7 11.3-1.5 1.9-4.3 4.3-6.2 5.2-2 .9-3.6 1.9-3.6 2.1 0 .2 3.6 6.5 8 14.1 4.4 7.5 8 13.8 8 14.1 0 .2-1.4.3-3.2.1-2.9-.3-3.8-1.3-10.8-13.3l-7.6-13-9.7-.3-9.6-.3-.3 13.8-.3 13.8-2.7.3-2.8.3V96.8l14.8.4c13.3.3 15.2.5 19.6 2.8zm51.4 29.7c2.1.5 1.9.7-1.8 2.4-5.3 2.4-6.2 2.4-3-.1 2-1.5 2.1-2 .8-2-.9 0-2-.5-2.4-1.2-.5-.8 0-.9 1.7-.4 1.3.4 3.4 1 4.7 1.3zm-183 3c-.4 3.6-4.6 4.6-5.5 1.4-.3-1.2-1.2-2.1-1.9-2.1-.8 0-1.4-.5-1.4-1 0-.6 2.1-1 4.6-1 4.4 0 4.5.1 4.2 2.7zm179.7 24.8c2.6 1.2 2.7 1.3.8 1.4-2.9.1-4 2.1-2 3.6 2.7 2 2 2.3-2.3 1.2-2.2-.6-4-1.5-4-2s.9-.7 2-.4c1.1.3 2 .4 2 .2s.3-1 .6-1.9c.4-1.1.1-1.6-1-1.6-.9 0-1.6-.5-1.6-1 0-1.3 1.9-1.2 5.5.5zm-177.9 2c-2.1 1.6-1.5 4.8.8 3.9.8-.3 1.7-.1 2 .4.3.6-.6 1.3-2.2 1.6-1.5.4-3.5.9-4.4 1.2-1 .3-1.8.1-1.8-.5s.7-1.1 1.5-1.1c.9 0 1.5-.9 1.5-2.1 0-1.6-.5-2-2-1.6-3 .8-2.4-1 .8-2.1 4.2-1.6 6.1-1.4 3.8.3zm163.8 27.1c0 1.6.4 3.2 1 3.6.6.4.8 1 .4 1.3-.4.4-2.3-.4-4.3-1.8l-3.7-2.5 2.2-2.2c2.7-2.7 4.5-2.1 4.4 1.6zm-149 1c.8 2.1-.9 5-3.3 5.7-3.5.9-5.6-3.4-2.9-6.1 1.7-1.7 5.5-1.5 6.2.4zM80 209.1c0 .5-.6.6-1.4.3-.7-.3-2.1.6-3 2-.9 1.5-2.1 2.6-2.7 2.6-.6 0-.1-1.3 1-2.9 1.3-1.7 1.8-3.6 1.4-4.6-.6-1.6-.4-1.6 2 0 1.5.9 2.7 2.1 2.7 2.6zm111.3.9c-.2.3-.9.6-1.4.6-.5.1-1.3.2-1.9.3-.5 0-1 .9-1 1.8 0 1-.3 1.3-.9.7-1.2-1.3-3-7.1-2.4-7.8.3-.3 2.3.5 4.4 1.7 2.1 1.2 3.5 2.4 3.2 2.7zm-28.8 11.5c0 1.1.4 2.6.8 3.2.5.8.4 1.3-.2 1.3-.5 0-1.3-.5-1.6-1-1.1-1.8-2.6-1-2 1 .3 1.1.2 2-.3 2-1.1 0-3.3-7-2.6-8.2.3-.5 1.8-.8 3.2-.6 1.9.2 2.7.9 2.7 2.3zm-58 1.9c0 1.6-.7 3.3-1.6 3.9-2.6 1.6-4.9.1-4.9-3.1 0-3.6.8-4.4 4-4 2 .2 2.5.8 2.5 3.2zm29.5 1.4c0 .5-1 .8-2.2.8-2.8-.1-3.9 4.1-1.3 5 2.1.9 3.3-.5 1.5-1.6-1.3-.8-1.2-1 .3-1 1.9 0 2.4 3.4.7 4.5-3.2 2-6.9-3-4.9-6.7 1-1.8 5.9-2.6 5.9-1z"/><path d="M145 116v15h9.3c10.9 0 15.6-1.1 19-4.6 8.4-8.3 4.2-21.8-7.4-24.3-2.7-.6-8.6-1.1-12.9-1.1h-8v15zM38 133.6c0 .9.5 1.4 1.2 1.2 1.8-.6 2.1-2.8.4-2.8-.9 0-1.6.7-1.6 1.6zM204 186.5c0 .8.7 1.5 1.5 1.5s1.5-.7 1.5-1.5-.7-1.5-1.5-1.5-1.5.7-1.5 1.5zM53 188.5c-2.2 2.6.4 4.3 3 2 2-1.8 1.8-3.5-.4-3.5-.8 0-1.9.7-2.6 1.5zM185.5 209c.3.5 1.1 1 1.6 1 .6 0 .7-.5.4-1-.3-.6-1.1-1-1.6-1-.6 0-.7.4-.4 1zM158 221.5c0 .8.7 1.5 1.5 1.5s1.5-.7 1.5-1.5-.7-1.5-1.5-1.5-1.5.7-1.5 1.5zM100 224c0 3.2.9 3.7 2.8 1.8 1.9-1.9 1.5-4.8-.8-4.8-1.6 0-2 .7-2 3z"/></svg>