<svg xmlns="http://www.w3.org/2000/svg" class="svg-hidden">
    <symbol id="srp-logo-color" viewBox="0 0 107.11 112.06">
      <title>sacha-r&#xFC;ede-logo-color</title><path d="M38.43,50.57a11.4,11.4,0,0,1-4.31-3.34,8.23,8.23,0,0,1-1.53-5.11A8.23,8.23,0,0,1,34.3,37,10.8,10.8,0,0,1,39,33.56a18.54,18.54,0,0,1,6.78-1.17,15.48,15.48,0,0,1,6.85,1.47A11.54,11.54,0,0,1,57.37,38a11.21,11.21,0,0,1,1.69,6.14H57.58a9.67,9.67,0,0,0-1.47-5.26A10.23,10.23,0,0,0,52,35.2a13.64,13.64,0,0,0-6.15-1.34A16.22,16.22,0,0,0,39.51,35a9.53,9.53,0,0,0-4,3,6.69,6.69,0,0,0-1.39,4.08A7.18,7.18,0,0,0,35.13,46a9.71,9.71,0,0,0,3.71,3.09,33.89,33.89,0,0,0,7.29,2.61,39.36,39.36,0,0,1,7.22,2.52,12.24,12.24,0,0,1,4.51,3.56,9.39,9.39,0,0,1-.15,10.82,11.2,11.2,0,0,1-4.87,3.5A18.69,18.69,0,0,1,46,73.29a21.4,21.4,0,0,1-7.07-1.16,12.06,12.06,0,0,1-5.47-3.8,10.46,10.46,0,0,1-2.14-6.82h1.47a8.9,8.9,0,0,0,2,6,11,11,0,0,0,5,3.29,19.7,19.7,0,0,0,6.22,1,16.65,16.65,0,0,0,6.21-1.09,9.92,9.92,0,0,0,4.26-3A7,7,0,0,0,58,63.2a7.56,7.56,0,0,0-1.19-4.32A10,10,0,0,0,53,55.74a38.64,38.64,0,0,0-7.24-2.63A45.89,45.89,0,0,1,38.43,50.57Z" transform="translate(-8.94)"/><path d="M93.72,72.36v.38H92.17l-10.59-17H67.77v17H66.3V32.93H79a16.31,16.31,0,0,1,6.78,1.34,10.55,10.55,0,0,1,4.62,3.94,11.26,11.26,0,0,1,1.67,6.21,11,11,0,0,1-4.42,8.92,10.76,10.76,0,0,1-4.55,2ZM80.33,54.23a10.73,10.73,0,0,0,5.57-1.38,9.07,9.07,0,0,0,3.5-3.62,10.16,10.16,0,0,0,1.18-4.81,9.89,9.89,0,0,0-1.42-5.35,9.21,9.21,0,0,0-4-3.46A14.54,14.54,0,0,0,79,34.41H67.77V54.23Z" transform="translate(-8.94)"/><path d="M48.22,19.53a.14.14,0,0,1-.13.08.28.28,0,0,1-.17-.09,1.87,1.87,0,0,0-.28-.2,1.8,1.8,0,0,0-.44-.21,2,2,0,0,0-.65-.1,2,2,0,0,0-.68.11,1.69,1.69,0,0,0-.49.3,1.43,1.43,0,0,0-.3.44,1.39,1.39,0,0,0-.1.53,1.05,1.05,0,0,0,.15.59,1.39,1.39,0,0,0,.4.4,2.52,2.52,0,0,0,.57.28l.65.22c.23.08.45.16.66.25a2.66,2.66,0,0,1,.57.33,1.44,1.44,0,0,1,.55,1.22,2.32,2.32,0,0,1-.15.84,2,2,0,0,1-.44.68,2.18,2.18,0,0,1-.71.46,2.61,2.61,0,0,1-1,.16,2.81,2.81,0,0,1-1.21-.24,2.89,2.89,0,0,1-.88-.68l.14-.22a.15.15,0,0,1,.25,0l.17.15L45,25a2.31,2.31,0,0,0,.75.34,2.32,2.32,0,0,0,.55.06,2,2,0,0,0,.75-.13,1.52,1.52,0,0,0,.56-.35,1.45,1.45,0,0,0,.35-.52,1.75,1.75,0,0,0,.12-.65,1,1,0,0,0-.16-.61,1.3,1.3,0,0,0-.4-.41,2.5,2.5,0,0,0-.57-.27l-.65-.22c-.22-.07-.44-.14-.65-.23a2.24,2.24,0,0,1-.57-.33,1.54,1.54,0,0,1-.4-.51,1.56,1.56,0,0,1-.16-.76,1.8,1.8,0,0,1,.14-.68,1.74,1.74,0,0,1,.39-.58,2,2,0,0,1,.65-.41,2.33,2.33,0,0,1,.87-.15,2.78,2.78,0,0,1,1,.17,2.46,2.46,0,0,1,.8.54Z" transform="translate(-8.94)"/><path d="M56.51,25.74h-.4a.2.2,0,0,1-.11,0,.23.23,0,0,1-.07-.1l-.84-2.06H51.62l-.83,2.06a.22.22,0,0,1-.07.09.19.19,0,0,1-.12,0h-.39l2.89-7.07h.51Zm-4.74-2.57h3.17L53.5,19.6a1.07,1.07,0,0,1-.07-.19,1.55,1.55,0,0,1-.07-.23c0,.08,0,.16-.07.23s0,.13-.07.19Z" transform="translate(-8.94)"/><path d="M63.64,24.55a.13.13,0,0,1,.09,0l.2.21a3.89,3.89,0,0,1-.48.43,3.49,3.49,0,0,1-.57.32,3.28,3.28,0,0,1-.67.2,4.14,4.14,0,0,1-.81.07,3.49,3.49,0,0,1-1.35-.25,3.14,3.14,0,0,1-1-.73,3.37,3.37,0,0,1-.68-1.15,4.42,4.42,0,0,1,0-3,3.21,3.21,0,0,1,1.8-1.88,3.77,3.77,0,0,1,1.41-.26,3.8,3.8,0,0,1,.7.06,3.27,3.27,0,0,1,.6.16,2.33,2.33,0,0,1,.52.27,3.41,3.41,0,0,1,.48.37l-.15.22a.15.15,0,0,1-.13.06.17.17,0,0,1-.11-.05l-.18-.13L63,19.38a2,2,0,0,0-.36-.17A3.16,3.16,0,0,0,61.54,19a3.07,3.07,0,0,0-1.19.22,2.62,2.62,0,0,0-.93.64,2.78,2.78,0,0,0-.6,1,3.64,3.64,0,0,0-.22,1.31,4,4,0,0,0,.21,1.34,2.84,2.84,0,0,0,.6,1,2.61,2.61,0,0,0,.9.63,2.9,2.9,0,0,0,1.12.21,3.56,3.56,0,0,0,.68-.05,2.84,2.84,0,0,0,.54-.14,2.64,2.64,0,0,0,.47-.25,4.18,4.18,0,0,0,.42-.34l.05,0Z" transform="translate(-8.94)"/><path d="M71.91,25.74h-.52V22.35H67v3.39h-.51V18.67H67V22h4.43v-3.3h.52Z" transform="translate(-8.94)"/><path d="M80.48,25.74h-.4a.2.2,0,0,1-.11,0,.23.23,0,0,1-.07-.1l-.84-2.06H75.59l-.83,2.06a.22.22,0,0,1-.07.09.19.19,0,0,1-.12,0h-.39l2.89-7.07h.51Zm-4.74-2.57h3.17L77.47,19.6a1.07,1.07,0,0,1-.07-.19,1.55,1.55,0,0,1-.07-.23c0,.08,0,.16-.07.23s-.05.13-.07.19Z" transform="translate(-8.94)"/><path d="M46,84.21v3.2h-.5V80.34h1.8a2.9,2.9,0,0,1,1.83.47,1.66,1.66,0,0,1,.61,1.39,1.81,1.81,0,0,1-.15.74,1.55,1.55,0,0,1-.4.58,2,2,0,0,1-.63.42,2.66,2.66,0,0,1-.84.21.83.83,0,0,1,.22.2l2.44,3.06h-.45a.32.32,0,0,1-.14,0,.33.33,0,0,1-.11-.1l-2.26-2.87a.53.53,0,0,0-.19-.15.71.71,0,0,0-.3-.05Zm0-.38h1.24a3.11,3.11,0,0,0,.84-.11,1.87,1.87,0,0,0,.63-.32,1.39,1.39,0,0,0,.39-.51,1.59,1.59,0,0,0,.14-.66,1.29,1.29,0,0,0-.5-1.12,2.36,2.36,0,0,0-1.44-.37H46Z" transform="translate(-8.94)"/><path d="M55.2,87.05a2.21,2.21,0,0,0,.91-.18,2,2,0,0,0,.68-.49,2.13,2.13,0,0,0,.43-.75,2.73,2.73,0,0,0,.15-.92V80.34h.51v4.37a3.2,3.2,0,0,1-.19,1.09,2.57,2.57,0,0,1-.53.89,2.45,2.45,0,0,1-.85.59,2.94,2.94,0,0,1-2.23,0,2.45,2.45,0,0,1-.85-.59,2.57,2.57,0,0,1-.53-.89,3.2,3.2,0,0,1-.18-1.09V80.34H53v4.37a2.77,2.77,0,0,0,.15.92,2.34,2.34,0,0,0,.42.74,2,2,0,0,0,.68.5A2.25,2.25,0,0,0,55.2,87.05Zm-.64-8a.4.4,0,0,1,0,.15.62.62,0,0,1-.09.12.38.38,0,0,1-.13.09l-.16,0a.4.4,0,0,1-.15,0,.38.38,0,0,1-.13-.09.27.27,0,0,1-.09-.12.4.4,0,0,1,0-.15.41.41,0,0,1,0-.16.44.44,0,0,1,.22-.22.4.4,0,0,1,.15,0l.16,0a.38.38,0,0,1,.13.09l.09.13A.41.41,0,0,1,54.56,79.09Zm2.08,0a.4.4,0,0,1,0,.15.27.27,0,0,1-.09.12.38.38,0,0,1-.13.09.4.4,0,0,1-.15,0,.41.41,0,0,1-.16,0,.38.38,0,0,1-.13-.09.27.27,0,0,1-.09-.12.41.41,0,0,1,.53-.53.44.44,0,0,1,.22.22A.41.41,0,0,1,56.64,79.09Z" transform="translate(-8.94)"/><path d="M65.22,80.34v.42H61.49v2.86h3.1V84h-3.1V87h3.73v.42H61V80.34Z" transform="translate(-8.94)"/><path d="M73.73,83.87a4.29,4.29,0,0,1-.25,1.48,3.16,3.16,0,0,1-.69,1.11,3,3,0,0,1-1.06.71,3.85,3.85,0,0,1-1.38.24H67.77V80.34h2.58a3.85,3.85,0,0,1,1.38.24,2.87,2.87,0,0,1,1.06.71,3.07,3.07,0,0,1,.69,1.11A4.27,4.27,0,0,1,73.73,83.87Zm-.53,0A3.89,3.89,0,0,0,73,82.55a2.8,2.8,0,0,0-.58-1,2.44,2.44,0,0,0-.89-.61,3.13,3.13,0,0,0-1.17-.21H68.29V87h2.06a3.13,3.13,0,0,0,1.17-.21,2.44,2.44,0,0,0,.89-.61,2.9,2.9,0,0,0,.58-1A3.91,3.91,0,0,0,73.2,83.87Z" transform="translate(-8.94)"/><path d="M80.71,80.34v.42H77v2.86h3.1V84H77V87h3.73v.42H76.47V80.34Z" transform="translate(-8.94)"/><path class="a" d="M11.79,58.12l-2.85,0v-.51L16,57.54l0,1.82a2.88,2.88,0,0,1-.51,1.89A2,2,0,0,1,14,61.9a2.05,2.05,0,0,1-.86-.15,1.94,1.94,0,0,1-.68-.49,2.29,2.29,0,0,1-.45-.78,3.39,3.39,0,0,1-.18-1Zm.41,0,0,1.31a2.62,2.62,0,0,0,.15.84,1.74,1.74,0,0,0,.37.62,1.63,1.63,0,0,0,.55.39,1.55,1.55,0,0,0,.68.12,1.55,1.55,0,0,0,1.25-.52,2.2,2.2,0,0,0,.41-1.5l0-1.32Z" transform="translate(-8.94)"/><path class="a" d="M12.66,78.24l-.16-.49,3.21-1.09-1.43-4.19-3.21,1.08-.16-.48,6.7-2.28.16.49-3.12,1.06,1.42,4.2,3.13-1.07.16.49Z" transform="translate(-8.94)"/><path class="a" d="M25,91.69a4.45,4.45,0,0,1-1.33.72,3.36,3.36,0,0,1-1.32.15,3.07,3.07,0,0,1-1.23-.4,3.38,3.38,0,0,1-1-.93A3.32,3.32,0,0,1,19.44,90a3,3,0,0,1-.08-1.29,3.4,3.4,0,0,1,.48-1.24,4.45,4.45,0,0,1,1-1.11,4.26,4.26,0,0,1,1.32-.71,3.24,3.24,0,0,1,1.33-.14,3.06,3.06,0,0,1,1.23.39,3.47,3.47,0,0,1,1,.92,3.63,3.63,0,0,1,.64,1.25,3.13,3.13,0,0,1,.07,1.29A3.19,3.19,0,0,1,26,90.59,4.21,4.21,0,0,1,25,91.69Zm-.32-.42a3.8,3.8,0,0,0,.92-1A2.8,2.8,0,0,0,26,89.23,2.37,2.37,0,0,0,26,88.14a3.18,3.18,0,0,0-1.42-1.84,2.4,2.4,0,0,0-1-.33,2.9,2.9,0,0,0-1.15.15,4,4,0,0,0-1.18.65,4.06,4.06,0,0,0-.93,1,2.87,2.87,0,0,0-.43,1.07,2.67,2.67,0,0,0,.05,1.09,3,3,0,0,0,.54,1,3,3,0,0,0,.88.79,2.49,2.49,0,0,0,1,.33,2.76,2.76,0,0,0,1.15-.16A4,4,0,0,0,24.67,91.27Z" transform="translate(-8.94)"/><path class="a" d="M38.25,98.21l-.25.35-2-1.42-3.79,5.46-.42-.3,3.79-5.45-2-1.43.25-.35Z" transform="translate(-8.94)"/><path class="a" d="M50.93,107.23a4.11,4.11,0,0,1-.67,1.34,3.23,3.23,0,0,1-1,.89,3,3,0,0,1-1.23.38,3.56,3.56,0,0,1-1.39-.15,3.8,3.8,0,0,1-1.23-.65,3.13,3.13,0,0,1-1.12-2.31,4.18,4.18,0,0,1,.2-1.49,4.27,4.27,0,0,1,.67-1.35,3.33,3.33,0,0,1,1-.88,3.06,3.06,0,0,1,1.23-.39,3.48,3.48,0,0,1,1.38.16,3.34,3.34,0,0,1,1.24.65,3,3,0,0,1,.8,1,3.23,3.23,0,0,1,.32,1.3A4.18,4.18,0,0,1,50.93,107.23Zm-.5-.16a4,4,0,0,0,.19-1.33,2.76,2.76,0,0,0-.26-1.13,2.42,2.42,0,0,0-.67-.86,2.92,2.92,0,0,0-1-.55,3,3,0,0,0-1.16-.14,2.55,2.55,0,0,0-1,.34,3,3,0,0,0-.85.78,3.9,3.9,0,0,0-.59,1.21,4.12,4.12,0,0,0-.2,1.34,2.88,2.88,0,0,0,.27,1.12,2.36,2.36,0,0,0,.67.86,3.23,3.23,0,0,0,2.22.69,2.51,2.51,0,0,0,1-.34,2.71,2.71,0,0,0,.85-.78A4.26,4.26,0,0,0,50.43,107.07Z" transform="translate(-8.94)"/><path class="a" d="M64.43,111.64a4.43,4.43,0,0,0,.66,0l.55-.13a4.19,4.19,0,0,0,.49-.2l.46-.25-.06-1.91-1.36,0a.16.16,0,0,1-.09,0,.09.09,0,0,1,0-.08v-.28l2-.06.07,2.52a3.77,3.77,0,0,1-.54.34,4,4,0,0,1-.6.26,4.78,4.78,0,0,1-.7.17,6.51,6.51,0,0,1-.82.08,3.71,3.71,0,0,1-1.4-.22,3,3,0,0,1-1.11-.7,3.25,3.25,0,0,1-.73-1.12,4.11,4.11,0,0,1-.29-1.48,4.23,4.23,0,0,1,.2-1.5,3.35,3.35,0,0,1,.68-1.16,3.23,3.23,0,0,1,1.1-.76,4.17,4.17,0,0,1,1.46-.3,5.86,5.86,0,0,1,.75,0,3.11,3.11,0,0,1,1.2.39,4.1,4.1,0,0,1,.5.35l-.13.22a.14.14,0,0,1-.12.08l-.09,0a1.19,1.19,0,0,1-.22-.13,3.19,3.19,0,0,0-.39-.22,3.11,3.11,0,0,0-.61-.2,3.91,3.91,0,0,0-.89-.07,3.47,3.47,0,0,0-1.24.26,2.68,2.68,0,0,0-.93.66,3,3,0,0,0-.58,1,4,4,0,0,0-.17,1.33,4,4,0,0,0,.25,1.34,3,3,0,0,0,.64,1,2.59,2.59,0,0,0,.94.61A3.38,3.38,0,0,0,64.43,111.64Z" transform="translate(-8.94)"/><path class="a" d="M78,106.39l1.07,3-.48.17-2.37-6.66,1.7-.61a3,3,0,0,1,1.88-.17,1.68,1.68,0,0,1,1,1.1A2,2,0,0,1,81,104a1.68,1.68,0,0,1-.18.69,2.29,2.29,0,0,1-.46.6,2.94,2.94,0,0,1-.71.48.8.8,0,0,1,.27.12l3.32,2.06-.42.15a.36.36,0,0,1-.14,0l-.14-.06-3.1-1.94a.4.4,0,0,0-.22-.08.77.77,0,0,0-.3,0Zm-.13-.36,1.16-.42a2.77,2.77,0,0,0,.75-.38,1.84,1.84,0,0,0,.49-.52,1.34,1.34,0,0,0,.2-.61,1.46,1.46,0,0,0-.1-.67,1.3,1.3,0,0,0-.84-.89,2.41,2.41,0,0,0-1.48.14l-1.22.44Z" transform="translate(-8.94)"/><path class="a" d="M97.6,99l-.32.24a.15.15,0,0,1-.11,0,.28.28,0,0,1-.12,0l-1.91-1.12-2.76,2.12.6,2.13a.24.24,0,0,1,0,.12.14.14,0,0,1-.07.1l-.31.24-2-7.37.4-.31Zm-5.32.84,2.51-1.93-3.32-2-.18-.12-.19-.13a2,2,0,0,1,.08.22c0,.07,0,.14.07.2Z" transform="translate(-8.94)"/><path class="a" d="M103.12,88.83l2.32,1.65-.3.42-5.76-4.1,1.06-1.49A2.81,2.81,0,0,1,102,84.1a2,2,0,0,1,1.63.38,2.27,2.27,0,0,1,.6.64,2,2,0,0,1,.26.8,2.33,2.33,0,0,1-.1.89,3.54,3.54,0,0,1-.48,1Zm-.34-.23.76-1.08a2.17,2.17,0,0,0,.38-.76A1.82,1.82,0,0,0,104,86a1.68,1.68,0,0,0-.69-1.14,1.63,1.63,0,0,0-1.32-.32,2.3,2.3,0,0,0-1.23,1L100,86.62Z" transform="translate(-8.94)"/><path class="a" d="M114.35,72.12l-.16.49-3.23-1-1.34,4.23,3.23,1-.16.49L106,75.18l.16-.49,3.14,1,1.34-4.22-3.14-1,.15-.49Z" transform="translate(-8.94)"/><path class="a" d="M113.13,58.05H116v.51h-2.92L109,61.19v-.45a.21.21,0,0,1,0-.11.36.36,0,0,1,.09-.08l3.25-2a1.19,1.19,0,0,1,.22-.12l.22-.09-.22-.09-.23-.12-3.25-2A.16.16,0,0,1,109,56a.21.21,0,0,1,0-.12v-.45Z" transform="translate(-8.94)"/><path class="b" d="M10.54,52.5a52,52,0,0,1,104,0" transform="translate(-8.94)"/>
    </symbol>
    <symbol id="srp-logo" viewBox="0 0 107.11 112.06">
      <title>sacha-r&#xFC;ede-logo</title><path class="a" d="M38.43,50.57a11.4,11.4,0,0,1-4.31-3.34,8.23,8.23,0,0,1-1.53-5.11A8.23,8.23,0,0,1,34.3,37,10.8,10.8,0,0,1,39,33.56a18.54,18.54,0,0,1,6.78-1.17,15.48,15.48,0,0,1,6.85,1.47A11.54,11.54,0,0,1,57.37,38a11.21,11.21,0,0,1,1.69,6.14H57.58a9.67,9.67,0,0,0-1.47-5.26A10.23,10.23,0,0,0,52,35.2a13.64,13.64,0,0,0-6.15-1.34A16.22,16.22,0,0,0,39.51,35a9.53,9.53,0,0,0-4,3,6.69,6.69,0,0,0-1.39,4.08A7.18,7.18,0,0,0,35.13,46a9.71,9.71,0,0,0,3.71,3.09,33.89,33.89,0,0,0,7.29,2.61,39.36,39.36,0,0,1,7.22,2.52,12.24,12.24,0,0,1,4.51,3.56,9.39,9.39,0,0,1-.15,10.82,11.2,11.2,0,0,1-4.87,3.5A18.69,18.69,0,0,1,46,73.29a21.4,21.4,0,0,1-7.07-1.16,12.06,12.06,0,0,1-5.47-3.8,10.46,10.46,0,0,1-2.14-6.82h1.47a8.9,8.9,0,0,0,2,6,11,11,0,0,0,5,3.29,19.7,19.7,0,0,0,6.22,1,16.65,16.65,0,0,0,6.21-1.09,9.92,9.92,0,0,0,4.26-3A7,7,0,0,0,58,63.2a7.56,7.56,0,0,0-1.19-4.32A10,10,0,0,0,53,55.74a38.64,38.64,0,0,0-7.24-2.63A45.89,45.89,0,0,1,38.43,50.57Z" transform="translate(-8.94)"/><path class="a" d="M93.72,72.36v.38H92.17l-10.59-17H67.77v17H66.3V32.93H79a16.31,16.31,0,0,1,6.78,1.34,10.55,10.55,0,0,1,4.62,3.94,11.26,11.26,0,0,1,1.67,6.21,11,11,0,0,1-4.42,8.92,10.76,10.76,0,0,1-4.55,2ZM80.33,54.23a10.73,10.73,0,0,0,5.57-1.38,9.07,9.07,0,0,0,3.5-3.62,10.16,10.16,0,0,0,1.18-4.81,9.89,9.89,0,0,0-1.42-5.35,9.21,9.21,0,0,0-4-3.46A14.54,14.54,0,0,0,79,34.41H67.77V54.23Z" transform="translate(-8.94)"/><path class="a" d="M48.22,19.53a.14.14,0,0,1-.13.08.28.28,0,0,1-.17-.09,1.87,1.87,0,0,0-.28-.2,1.8,1.8,0,0,0-.44-.21,2,2,0,0,0-.65-.1,2,2,0,0,0-.68.11,1.69,1.69,0,0,0-.49.3,1.43,1.43,0,0,0-.3.44,1.39,1.39,0,0,0-.1.53,1.05,1.05,0,0,0,.15.59,1.39,1.39,0,0,0,.4.4,2.52,2.52,0,0,0,.57.28l.65.22c.23.08.45.16.66.25a2.66,2.66,0,0,1,.57.33,1.44,1.44,0,0,1,.55,1.22,2.32,2.32,0,0,1-.15.84,2,2,0,0,1-.44.68,2.18,2.18,0,0,1-.71.46,2.61,2.61,0,0,1-1,.16,2.81,2.81,0,0,1-1.21-.24,2.89,2.89,0,0,1-.88-.68l.14-.22a.15.15,0,0,1,.25,0l.17.15L45,25a2.31,2.31,0,0,0,.75.34,2.32,2.32,0,0,0,.55.06,2,2,0,0,0,.75-.13,1.52,1.52,0,0,0,.56-.35,1.45,1.45,0,0,0,.35-.52,1.75,1.75,0,0,0,.12-.65,1,1,0,0,0-.16-.61,1.3,1.3,0,0,0-.4-.41,2.5,2.5,0,0,0-.57-.27l-.65-.22c-.22-.07-.44-.14-.65-.23a2.24,2.24,0,0,1-.57-.33,1.54,1.54,0,0,1-.4-.51,1.56,1.56,0,0,1-.16-.76,1.8,1.8,0,0,1,.14-.68,1.74,1.74,0,0,1,.39-.58,2,2,0,0,1,.65-.41,2.33,2.33,0,0,1,.87-.15,2.78,2.78,0,0,1,1,.17,2.46,2.46,0,0,1,.8.54Z" transform="translate(-8.94)"/><path class="a" d="M56.51,25.74h-.4a.2.2,0,0,1-.11,0,.23.23,0,0,1-.07-.1l-.84-2.06H51.62l-.83,2.06a.22.22,0,0,1-.07.09.19.19,0,0,1-.12,0h-.39l2.89-7.07h.51Zm-4.74-2.57h3.17L53.5,19.6a1.07,1.07,0,0,1-.07-.19,1.55,1.55,0,0,1-.07-.23c0,.08,0,.16-.07.23s0,.13-.07.19Z" transform="translate(-8.94)"/><path class="a" d="M63.64,24.55a.13.13,0,0,1,.09,0l.2.21a3.89,3.89,0,0,1-.48.43,3.49,3.49,0,0,1-.57.32,3.28,3.28,0,0,1-.67.2,4.14,4.14,0,0,1-.81.07,3.49,3.49,0,0,1-1.35-.25,3.14,3.14,0,0,1-1-.73,3.37,3.37,0,0,1-.68-1.15,4.42,4.42,0,0,1,0-3,3.21,3.21,0,0,1,1.8-1.88,3.77,3.77,0,0,1,1.41-.26,3.8,3.8,0,0,1,.7.06,3.27,3.27,0,0,1,.6.16,2.33,2.33,0,0,1,.52.27,3.41,3.41,0,0,1,.48.37l-.15.22a.15.15,0,0,1-.13.06.17.17,0,0,1-.11-.05l-.18-.13L63,19.38a2,2,0,0,0-.36-.17A3.16,3.16,0,0,0,61.54,19a3.07,3.07,0,0,0-1.19.22,2.62,2.62,0,0,0-.93.64,2.78,2.78,0,0,0-.6,1,3.64,3.64,0,0,0-.22,1.31,4,4,0,0,0,.21,1.34,2.84,2.84,0,0,0,.6,1,2.61,2.61,0,0,0,.9.63,2.9,2.9,0,0,0,1.12.21,3.56,3.56,0,0,0,.68-.05,2.84,2.84,0,0,0,.54-.14,2.64,2.64,0,0,0,.47-.25,4.18,4.18,0,0,0,.42-.34l.05,0Z" transform="translate(-8.94)"/><path class="a" d="M71.91,25.74h-.52V22.35H67v3.39h-.51V18.67H67V22h4.43v-3.3h.52Z" transform="translate(-8.94)"/><path class="a" d="M80.48,25.74h-.4a.2.2,0,0,1-.11,0,.23.23,0,0,1-.07-.1l-.84-2.06H75.59l-.83,2.06a.22.22,0,0,1-.07.09.19.19,0,0,1-.12,0h-.39l2.89-7.07h.51Zm-4.74-2.57h3.17L77.47,19.6a1.07,1.07,0,0,1-.07-.19,1.55,1.55,0,0,1-.07-.23c0,.08,0,.16-.07.23s-.05.13-.07.19Z" transform="translate(-8.94)"/><path class="a" d="M46,84.21v3.2h-.5V80.34h1.8a2.9,2.9,0,0,1,1.83.47,1.66,1.66,0,0,1,.61,1.39,1.81,1.81,0,0,1-.15.74,1.55,1.55,0,0,1-.4.58,2,2,0,0,1-.63.42,2.66,2.66,0,0,1-.84.21.83.83,0,0,1,.22.2l2.44,3.06h-.45a.32.32,0,0,1-.14,0,.33.33,0,0,1-.11-.1l-2.26-2.87a.53.53,0,0,0-.19-.15.71.71,0,0,0-.3-.05Zm0-.38h1.24a3.11,3.11,0,0,0,.84-.11,1.87,1.87,0,0,0,.63-.32,1.39,1.39,0,0,0,.39-.51,1.59,1.59,0,0,0,.14-.66,1.29,1.29,0,0,0-.5-1.12,2.36,2.36,0,0,0-1.44-.37H46Z" transform="translate(-8.94)"/><path class="a" d="M55.2,87.05a2.21,2.21,0,0,0,.91-.18,2,2,0,0,0,.68-.49,2.13,2.13,0,0,0,.43-.75,2.73,2.73,0,0,0,.15-.92V80.34h.51v4.37a3.2,3.2,0,0,1-.19,1.09,2.57,2.57,0,0,1-.53.89,2.45,2.45,0,0,1-.85.59,2.94,2.94,0,0,1-2.23,0,2.45,2.45,0,0,1-.85-.59,2.57,2.57,0,0,1-.53-.89,3.2,3.2,0,0,1-.18-1.09V80.34H53v4.37a2.77,2.77,0,0,0,.15.92,2.34,2.34,0,0,0,.42.74,2,2,0,0,0,.68.5A2.25,2.25,0,0,0,55.2,87.05Zm-.64-8a.4.4,0,0,1,0,.15.62.62,0,0,1-.09.12.38.38,0,0,1-.13.09l-.16,0a.4.4,0,0,1-.15,0,.38.38,0,0,1-.13-.09.27.27,0,0,1-.09-.12.4.4,0,0,1,0-.15.41.41,0,0,1,0-.16.44.44,0,0,1,.22-.22.4.4,0,0,1,.15,0l.16,0a.38.38,0,0,1,.13.09l.09.13A.41.41,0,0,1,54.56,79.09Zm2.08,0a.4.4,0,0,1,0,.15.27.27,0,0,1-.09.12.38.38,0,0,1-.13.09.4.4,0,0,1-.15,0,.41.41,0,0,1-.16,0,.38.38,0,0,1-.13-.09.27.27,0,0,1-.09-.12.41.41,0,0,1,.53-.53.44.44,0,0,1,.22.22A.41.41,0,0,1,56.64,79.09Z" transform="translate(-8.94)"/><path class="a" d="M65.22,80.34v.42H61.49v2.86h3.1V84h-3.1V87h3.73v.42H61V80.34Z" transform="translate(-8.94)"/><path class="a" d="M73.73,83.87a4.29,4.29,0,0,1-.25,1.48,3.16,3.16,0,0,1-.69,1.11,3,3,0,0,1-1.06.71,3.85,3.85,0,0,1-1.38.24H67.77V80.34h2.58a3.85,3.85,0,0,1,1.38.24,2.87,2.87,0,0,1,1.06.71,3.07,3.07,0,0,1,.69,1.11A4.27,4.27,0,0,1,73.73,83.87Zm-.53,0A3.89,3.89,0,0,0,73,82.55a2.8,2.8,0,0,0-.58-1,2.44,2.44,0,0,0-.89-.61,3.13,3.13,0,0,0-1.17-.21H68.29V87h2.06a3.13,3.13,0,0,0,1.17-.21,2.44,2.44,0,0,0,.89-.61,2.9,2.9,0,0,0,.58-1A3.91,3.91,0,0,0,73.2,83.87Z" transform="translate(-8.94)"/><path class="a" d="M80.71,80.34v.42H77v2.86h3.1V84H77V87h3.73v.42H76.47V80.34Z" transform="translate(-8.94)"/><path class="a" d="M11.79,58.12l-2.85,0v-.51L16,57.54l0,1.82a2.88,2.88,0,0,1-.51,1.89A2,2,0,0,1,14,61.9a2.05,2.05,0,0,1-.86-.15,1.94,1.94,0,0,1-.68-.49,2.29,2.29,0,0,1-.45-.78,3.39,3.39,0,0,1-.18-1Zm.41,0,0,1.31a2.62,2.62,0,0,0,.15.84,1.74,1.74,0,0,0,.37.62,1.63,1.63,0,0,0,.55.39,1.55,1.55,0,0,0,.68.12,1.55,1.55,0,0,0,1.25-.52,2.2,2.2,0,0,0,.41-1.5l0-1.32Z" transform="translate(-8.94)"/><path class="a" d="M12.66,78.24l-.16-.49,3.21-1.09-1.43-4.19-3.21,1.08-.16-.48,6.7-2.28.16.49-3.12,1.06,1.42,4.2,3.13-1.07.16.49Z" transform="translate(-8.94)"/><path class="a" d="M25,91.69a4.45,4.45,0,0,1-1.33.72,3.36,3.36,0,0,1-1.32.15,3.07,3.07,0,0,1-1.23-.4,3.38,3.38,0,0,1-1-.93A3.32,3.32,0,0,1,19.44,90a3,3,0,0,1-.08-1.29,3.4,3.4,0,0,1,.48-1.24,4.45,4.45,0,0,1,1-1.11,4.26,4.26,0,0,1,1.32-.71,3.24,3.24,0,0,1,1.33-.14,3.06,3.06,0,0,1,1.23.39,3.47,3.47,0,0,1,1,.92,3.63,3.63,0,0,1,.64,1.25,3.13,3.13,0,0,1,.07,1.29A3.19,3.19,0,0,1,26,90.59,4.21,4.21,0,0,1,25,91.69Zm-.32-.42a3.8,3.8,0,0,0,.92-1A2.8,2.8,0,0,0,26,89.23,2.37,2.37,0,0,0,26,88.14a3.18,3.18,0,0,0-1.42-1.84,2.4,2.4,0,0,0-1-.33,2.9,2.9,0,0,0-1.15.15,4,4,0,0,0-1.18.65,4.06,4.06,0,0,0-.93,1,2.87,2.87,0,0,0-.43,1.07,2.67,2.67,0,0,0,.05,1.09,3,3,0,0,0,.54,1,3,3,0,0,0,.88.79,2.49,2.49,0,0,0,1,.33,2.76,2.76,0,0,0,1.15-.16A4,4,0,0,0,24.67,91.27Z" transform="translate(-8.94)"/><path class="a" d="M38.25,98.21l-.25.35-2-1.42-3.79,5.46-.42-.3,3.79-5.45-2-1.43.25-.35Z" transform="translate(-8.94)"/><path class="a" d="M50.93,107.23a4.11,4.11,0,0,1-.67,1.34,3.23,3.23,0,0,1-1,.89,3,3,0,0,1-1.23.38,3.56,3.56,0,0,1-1.39-.15,3.8,3.8,0,0,1-1.23-.65,3.13,3.13,0,0,1-1.12-2.31,4.18,4.18,0,0,1,.2-1.49,4.27,4.27,0,0,1,.67-1.35,3.33,3.33,0,0,1,1-.88,3.06,3.06,0,0,1,1.23-.39,3.48,3.48,0,0,1,1.38.16,3.34,3.34,0,0,1,1.24.65,3,3,0,0,1,.8,1,3.23,3.23,0,0,1,.32,1.3A4.18,4.18,0,0,1,50.93,107.23Zm-.5-.16a4,4,0,0,0,.19-1.33,2.76,2.76,0,0,0-.26-1.13,2.42,2.42,0,0,0-.67-.86,2.92,2.92,0,0,0-1-.55,3,3,0,0,0-1.16-.14,2.55,2.55,0,0,0-1,.34,3,3,0,0,0-.85.78,3.9,3.9,0,0,0-.59,1.21,4.12,4.12,0,0,0-.2,1.34,2.88,2.88,0,0,0,.27,1.12,2.36,2.36,0,0,0,.67.86,3.23,3.23,0,0,0,2.22.69,2.51,2.51,0,0,0,1-.34,2.71,2.71,0,0,0,.85-.78A4.26,4.26,0,0,0,50.43,107.07Z" transform="translate(-8.94)"/><path class="a" d="M64.43,111.64a4.43,4.43,0,0,0,.66,0l.55-.13a4.19,4.19,0,0,0,.49-.2l.46-.25-.06-1.91-1.36,0a.16.16,0,0,1-.09,0,.09.09,0,0,1,0-.08v-.28l2-.06.07,2.52a3.77,3.77,0,0,1-.54.34,4,4,0,0,1-.6.26,4.78,4.78,0,0,1-.7.17,6.51,6.51,0,0,1-.82.08,3.71,3.71,0,0,1-1.4-.22,3,3,0,0,1-1.11-.7,3.25,3.25,0,0,1-.73-1.12,4.11,4.11,0,0,1-.29-1.48,4.23,4.23,0,0,1,.2-1.5,3.35,3.35,0,0,1,.68-1.16,3.23,3.23,0,0,1,1.1-.76,4.17,4.17,0,0,1,1.46-.3,5.86,5.86,0,0,1,.75,0,3.11,3.11,0,0,1,1.2.39,4.1,4.1,0,0,1,.5.35l-.13.22a.14.14,0,0,1-.12.08l-.09,0a1.19,1.19,0,0,1-.22-.13,3.19,3.19,0,0,0-.39-.22,3.11,3.11,0,0,0-.61-.2,3.91,3.91,0,0,0-.89-.07,3.47,3.47,0,0,0-1.24.26,2.68,2.68,0,0,0-.93.66,3,3,0,0,0-.58,1,4,4,0,0,0-.17,1.33,4,4,0,0,0,.25,1.34,3,3,0,0,0,.64,1,2.59,2.59,0,0,0,.94.61A3.38,3.38,0,0,0,64.43,111.64Z" transform="translate(-8.94)"/><path class="a" d="M78,106.39l1.07,3-.48.17-2.37-6.66,1.7-.61a3,3,0,0,1,1.88-.17,1.68,1.68,0,0,1,1,1.1A2,2,0,0,1,81,104a1.68,1.68,0,0,1-.18.69,2.29,2.29,0,0,1-.46.6,2.94,2.94,0,0,1-.71.48.8.8,0,0,1,.27.12l3.32,2.06-.42.15a.36.36,0,0,1-.14,0l-.14-.06-3.1-1.94a.4.4,0,0,0-.22-.08.77.77,0,0,0-.3,0Zm-.13-.36,1.16-.42a2.77,2.77,0,0,0,.75-.38,1.84,1.84,0,0,0,.49-.52,1.34,1.34,0,0,0,.2-.61,1.46,1.46,0,0,0-.1-.67,1.3,1.3,0,0,0-.84-.89,2.41,2.41,0,0,0-1.48.14l-1.22.44Z" transform="translate(-8.94)"/><path class="a" d="M97.6,99l-.32.24a.15.15,0,0,1-.11,0,.28.28,0,0,1-.12,0l-1.91-1.12-2.76,2.12.6,2.13a.24.24,0,0,1,0,.12.14.14,0,0,1-.07.1l-.31.24-2-7.37.4-.31Zm-5.32.84,2.51-1.93-3.32-2-.18-.12-.19-.13a2,2,0,0,1,.08.22c0,.07,0,.14.07.2Z" transform="translate(-8.94)"/><path class="a" d="M103.12,88.83l2.32,1.65-.3.42-5.76-4.1,1.06-1.49A2.81,2.81,0,0,1,102,84.1a2,2,0,0,1,1.63.38,2.27,2.27,0,0,1,.6.64,2,2,0,0,1,.26.8,2.33,2.33,0,0,1-.1.89,3.54,3.54,0,0,1-.48,1Zm-.34-.23.76-1.08a2.17,2.17,0,0,0,.38-.76A1.82,1.82,0,0,0,104,86a1.68,1.68,0,0,0-.69-1.14,1.63,1.63,0,0,0-1.32-.32,2.3,2.3,0,0,0-1.23,1L100,86.62Z" transform="translate(-8.94)"/><path class="a" d="M114.35,72.12l-.16.49-3.23-1-1.34,4.23,3.23,1-.16.49L106,75.18l.16-.49,3.14,1,1.34-4.22-3.14-1,.15-.49Z" transform="translate(-8.94)"/><path class="a" d="M113.13,58.05H116v.51h-2.92L109,61.19v-.45a.21.21,0,0,1,0-.11.36.36,0,0,1,.09-.08l3.25-2a1.19,1.19,0,0,1,.22-.12l.22-.09-.22-.09-.23-.12-3.25-2A.16.16,0,0,1,109,56a.21.21,0,0,1,0-.12v-.45Z" transform="translate(-8.94)"/><path class="b" d="M10.54,52.5a52,52,0,0,1,104,0" transform="translate(-8.94)"/>
    </symbol></svg>