<?xml version="1.0" encoding="utf-8"?>
<!-- Generator: Adobe Illustrator 22.0.1, SVG Export Plug-In . SVG Version: 6.00 Build 0)  -->
<svg version="1.1" id="Layer_1" xmlns="http://www.w3.org/2000/svg" xmlns:xlink="http://www.w3.org/1999/xlink" x="0px" y="0px"
	 viewBox="0 0 266.9 266.9" style="enable-background:new 0 0 266.9 266.9;" xml:space="preserve">
<style type="text/css">
	.st0{opacity:0.98;fill:#3C5A99;}
</style>
<path class="st0" d="M248.1,4.6H18.8C11,4.6,4.6,11,4.6,18.8v229.3c0,7.9,6.4,14.2,14.2,14.2h123.4v-99.8h-33.6v-38.9h33.6V94.9
	c0-33.3,20.3-51.4,50-51.4c14.2,0,26.5,1.1,30,1.5v34.8l-20.6,0c-16.1,0-19.3,7.7-19.3,18.9v24.8h38.5l-5,38.9h-33.5v99.8h65.7
	c7.9,0,14.2-6.4,14.2-14.2V18.8C262.3,11,255.9,4.6,248.1,4.6z"/>
</svg>
