<svg xmlns="http://www.w3.org/2000/svg" viewBox="160 1370 16 16"><defs><style>.a{fill:#fff;}</style></defs><g transform="translate(147 404.638)"><path class="a" d="M17.541,965.362A4.545,4.545,0,0,0,13,969.9v6.919a4.545,4.545,0,0,0,4.541,4.541h6.919A4.545,4.545,0,0,0,29,976.822V969.9a4.545,4.545,0,0,0-4.541-4.541Zm0,1.3h6.919A3.222,3.222,0,0,1,27.7,969.9v6.919a3.222,3.222,0,0,1-3.243,3.243H17.541a3.222,3.222,0,0,1-3.243-3.243V969.9A3.222,3.222,0,0,1,17.541,966.659Zm7.784,1.3a.865.865,0,1,0,.865.865A.865.865,0,0,0,25.324,967.957ZM21,969.038a4.324,4.324,0,1,0,4.324,4.324A4.334,4.334,0,0,0,21,969.038Zm0,1.3a3.027,3.027,0,1,1-3.027,3.027A3.017,3.017,0,0,1,21,970.335Z" transform="translate(0 0)"/></g></svg>