<svg xmlns="http://www.w3.org/2000/svg" viewBox="0 0 32 34.07">
<defs><style>.a{fill:#fff;}.b{fill:#fff;fill:currentColor;}</style></defs>
<title>sacha-rueede-photography-logo-small</title>
<path class="a" d="M8.7,16.63a3.36,3.36,0,0,1-1.21-1,2.39,2.39,0,0,1-.42-1.43,2.43,2.43,0,0,1,.47-1.49,3,3,0,0,1,1.31-1,4.92,4.92,0,0,1,1.93-.37,4.38,4.38,0,0,1,2,.44A3.34,3.34,0,0,1,14.1,13a3.12,3.12,0,0,1,.46,1.68h-.93a2.44,2.44,0,0,0-.34-1.29,2.41,2.41,0,0,0-1-.9,3.44,3.44,0,0,0-1.52-.32,3.64,3.64,0,0,0-1.51.28,2.08,2.08,0,0,0-.94.73,1.7,1.7,0,0,0-.32,1,1.67,1.67,0,0,0,.28,1,2.49,2.49,0,0,0,.92.75,8.63,8.63,0,0,0,1.76.64,9.88,9.88,0,0,1,2,.76,3.32,3.32,0,0,1,1.22,1,2.56,2.56,0,0,1,.42,1.49,2.48,2.48,0,0,1-.49,1.53,3,3,0,0,1-1.35,1,5.27,5.27,0,0,1-2,.35,5.53,5.53,0,0,1-2-.36,3.44,3.44,0,0,1-1.54-1.1,2.84,2.84,0,0,1-.6-1.85h.94a2.21,2.21,0,0,0,.46,1.45,2.68,2.68,0,0,0,1.18.82,4.66,4.66,0,0,0,1.55.25,4.06,4.06,0,0,0,1.5-.26,2.13,2.13,0,0,0,1-.73,1.76,1.76,0,0,0,.36-1.09,2,2,0,0,0-.28-1.05,2.46,2.46,0,0,0-.93-.77,10.81,10.81,0,0,0-1.81-.66A11,11,0,0,1,8.7,16.63Z"/>
<path class="a" d="M25.29,22.46v.1h-1L21.63,18H18.41v4.61h-.93v-11h3.58a4.89,4.89,0,0,1,2,.37A2.89,2.89,0,0,1,24.36,13a3.33,3.33,0,0,1,.45,1.77,3.08,3.08,0,0,1-.28,1.33,2.93,2.93,0,0,1-.81,1,3.26,3.26,0,0,1-1.2.62Zm-4-5.3a2.84,2.84,0,0,0,1.42-.33,2.22,2.22,0,0,0,.89-.88,2.42,2.42,0,0,0,.3-1.19,2.52,2.52,0,0,0-.33-1.31,2.13,2.13,0,0,0-.95-.85,3.55,3.55,0,0,0-1.54-.3H18.41v4.86Z"/>
<path class="b" d="M1.42,17.91a.41.41,0,0,1-.19.2.5.5,0,0,1-.27.07A.47.47,0,0,1,.7,18.1a.42.42,0,0,1-.16-.21.79.79,0,0,1-.06-.32v-.22H0V17l1.5,0v.61A.62.62,0,0,1,1.42,17.91Zm-.58-.18a.15.15,0,0,0,.13.06.25.25,0,0,0,.15-.05.21.21,0,0,0,.07-.15v-.22H.8v.22A.21.21,0,0,0,.84,17.73Z"/>
<path class="b" d="M2.31,22.8l-1.44.44-.11-.37.58-.18-.14-.48-.59.18L.5,22l1.44-.45.11.37-.56.18.15.48.56-.17Z"/>
<path class="b" d="M3.6,27.6a.59.59,0,0,1-.35,0A.58.58,0,0,1,3,27.34.65.65,0,0,1,2.85,27a.63.63,0,0,1,.07-.35.88.88,0,0,1,.28-.3l0,0a.85.85,0,0,1,.37-.16.6.6,0,0,1,.35,0,.59.59,0,0,1,.27.23.59.59,0,0,1,.13.33.61.61,0,0,1-.07.35.88.88,0,0,1-.28.3l0,0A.85.85,0,0,1,3.6,27.6ZM4,26.84a.24.24,0,0,0,0-.23q-.16-.22-.51,0l-.05,0a.8.8,0,0,0-.22.25.24.24,0,0,0,.24.33.64.64,0,0,0,.3-.13l0,0A.8.8,0,0,0,4,26.84Z"/>
<path class="b" d="M7.77,30.35l-.36-.26-.7,1-.32-.23.71-1-.35-.26.18-.26.66.49L8,30.1Z"/>
<path class="b" d="M11.74,33.13a.65.65,0,0,1-.31.18.7.7,0,0,1-.35,0,.62.62,0,0,1-.45-.52.81.81,0,0,1,0-.4l0,0a.79.79,0,0,1,.2-.36.57.57,0,0,1,.3-.17.63.63,0,0,1,.36,0,.79.79,0,0,1,.3.2.59.59,0,0,1,.14.32.85.85,0,0,1,0,.41v.05A1.07,1.07,0,0,1,11.74,33.13Zm-.13-.86a.2.2,0,0,0-.16-.16c-.17-.06-.3,0-.39.32l0,.06a.66.66,0,0,0,0,.33.25.25,0,0,0,.16.17.24.24,0,0,0,.23-.05.58.58,0,0,0,.16-.28l0-.06A.66.66,0,0,0,11.61,32.27Z"/>
<path class="b" d="M16.67,34a.76.76,0,0,1-.2.08l-.28,0a.68.68,0,0,1-.35-.09.51.51,0,0,1-.23-.25.82.82,0,0,1-.09-.4v-.07a1,1,0,0,1,.08-.4.53.53,0,0,1,.23-.26.73.73,0,0,1,.78,0,.59.59,0,0,1,.18.38h-.37a.27.27,0,0,0-.07-.17.29.29,0,0,0-.17,0,.23.23,0,0,0-.2.11.56.56,0,0,0-.07.32v.08a.54.54,0,0,0,.08.32.25.25,0,0,0,.23.1h.12l.07,0v-.21h-.24v-.28h.62v.64A.48.48,0,0,1,16.67,34Z"/>
<path class="b" d="M21.84,32.93h0l-.39.14-.4-.4-.17.06.16.48-.36.13-.5-1.43.58-.2a.86.86,0,0,1,.3,0,.38.38,0,0,1,.24.08.41.41,0,0,1,.15.21.48.48,0,0,1,0,.28.46.46,0,0,1-.13.22Zm-1.06-.49.21-.07a.17.17,0,0,0,.12-.24A.2.2,0,0,0,21,32a.19.19,0,0,0-.15,0l-.21.07Z"/>
<path class="b" d="M25.81,30.34l-.38.3.09.24-.32.26-.49-1.54.21-.16.08-.06,1.36.86-.33.25Zm-.26-.19-.41-.29.18.47Z"/>
<path class="b" d="M28.27,25.85a.5.5,0,0,1,.54,0,.47.47,0,0,1,.17.2.63.63,0,0,1,0,.27.78.78,0,0,1-.13.3l-.12.19.41.27-.22.32-1.25-.85.34-.5A.68.68,0,0,1,28.27,25.85Zm.4.46a.21.21,0,0,0-.08-.11.24.24,0,0,0-.16-.05.22.22,0,0,0-.13.09l-.12.19.32.22.13-.19A.21.21,0,0,0,28.67,26.31Z"/>
<path class="b" d="M30.14,21.22l1.45.4-.1.38-.59-.17-.13.49.59.16-.11.38-1.45-.41.1-.37.57.16.13-.49L30,21.59Z"/>
<path class="b" d="M30.48,16.93l0-.41,1,.43.53,0,0,.39-.53,0-.95.53,0-.42.61-.29Z"/>
<path class="a" d="M32,15.48h-.78A15,15,0,0,0,16,.76,15,15,0,0,0,.78,15.48H0A15.77,15.77,0,0,1,16,0,15.77,15.77,0,0,1,32,15.48Z"/>
</svg>