<svg xmlns="http://www.w3.org/2000/svg" viewBox="0 0 256 272.09">
<defs><style>.a{fill:#fff;}.b{fill:#ff7800;fill:currentColor;}</style></defs>
<title>sacha-rueede-photography-logo</title>
<path class="a" d="M70.54,122.57a27.09,27.09,0,0,1-10.28-8q-3.66-4.83-3.65-12.2a19.59,19.59,0,0,1,4.08-12.33A25.5,25.5,0,0,1,71.94,82a44.14,44.14,0,0,1,16.18-2.8,36.72,36.72,0,0,1,16.34,3.52,27.09,27.09,0,0,1,11.25,9.88,26.7,26.7,0,0,1,4.05,14.65h-3.52a23,23,0,0,0-3.53-12.56,24.21,24.21,0,0,0-9.91-8.77,32.45,32.45,0,0,0-14.68-3.2,38.46,38.46,0,0,0-15,2.67,22.73,22.73,0,0,0-9.65,7.15,16,16,0,0,0-3.33,9.75,17,17,0,0,0,2.55,9.36q2.54,4,8.83,7.37t17.39,6.23a93.21,93.21,0,0,1,17.22,6,29,29,0,0,1,10.77,8.51,22.4,22.4,0,0,1-.36,25.8,26.64,26.64,0,0,1-11.61,8.35,44.64,44.64,0,0,1-16.35,2.87A50.62,50.62,0,0,1,71.71,174a28.7,28.7,0,0,1-13-9.07q-5.11-6.28-5.12-16.28h3.52q0,8.88,4.77,14.39a26.2,26.2,0,0,0,11.9,7.86,47.13,47.13,0,0,0,14.84,2.35,39.58,39.58,0,0,0,14.81-2.61,23.81,23.81,0,0,0,10.18-7.27,16.81,16.81,0,0,0,3.65-10.67,18.12,18.12,0,0,0-2.83-10.31q-2.85-4.23-9.17-7.5a92,92,0,0,0-17.29-6.26A108.39,108.39,0,0,1,70.54,122.57Z"/>
<path class="a" d="M202.46,174.56v.92h-3.72l-25.25-40.65H140.55v40.65H137v-95H167.3a38.76,38.76,0,0,1,16.17,3.2,25.06,25.06,0,0,1,11,9.39,26.87,26.87,0,0,1,4,14.81,26.28,26.28,0,0,1-10.54,21.3,25.84,25.84,0,0,1-10.86,4.73Zm-32-43.25A25.66,25.66,0,0,0,183.8,128a21.66,21.66,0,0,0,8.35-8.65A24.34,24.34,0,0,0,195,107.89a23.44,23.44,0,0,0-3.4-12.75,21.91,21.91,0,0,0-9.62-8.26A34.73,34.73,0,0,0,167.3,84H140.55v47.3Z"/>
<path class="a" d="M88.38,48.51A5.09,5.09,0,0,1,86.52,47a3.66,3.66,0,0,1-.65-2.19,3.81,3.81,0,0,1,.72-2.29,4.81,4.81,0,0,1,2-1.54,7.51,7.51,0,0,1,3-.55,6.59,6.59,0,0,1,3.05.67,4.92,4.92,0,0,1,2,1.82,4.85,4.85,0,0,1,.71,2.57H96a3.81,3.81,0,0,0-.53-2,3.51,3.51,0,0,0-1.51-1.36,5.18,5.18,0,0,0-2.34-.5,5.71,5.71,0,0,0-2.31.42,3.32,3.32,0,0,0-1.46,1.12,2.75,2.75,0,0,0-.48,1.58,2.57,2.57,0,0,0,.43,1.48,3.82,3.82,0,0,0,1.42,1.16,13.46,13.46,0,0,0,2.69,1A15.21,15.21,0,0,1,95,49.54a5.11,5.11,0,0,1,1.87,1.59,4,4,0,0,1,.65,2.29,3.81,3.81,0,0,1-.75,2.35,4.75,4.75,0,0,1-2.07,1.54,8,8,0,0,1-3,.53,8.63,8.63,0,0,1-3-.54,5.58,5.58,0,0,1-2.37-1.69,4.4,4.4,0,0,1-.92-2.84h1.45a3.36,3.36,0,0,0,.7,2.21,4,4,0,0,0,1.82,1.26,7.1,7.1,0,0,0,2.37.39A6.28,6.28,0,0,0,94,56.24a3.43,3.43,0,0,0,1.54-1.13,2.71,2.71,0,0,0,.54-1.67,2.87,2.87,0,0,0-.43-1.61,3.74,3.74,0,0,0-1.42-1.18,15.6,15.6,0,0,0-2.78-1A16,16,0,0,1,88.38,48.51Z"/>
<path class="a" d="M112.63,52.86h-7.71l-1.75,4.75h-1.49l6.4-17h1.37l6.42,17h-1.5Zm-.46-1.22-3.4-9.24-3.4,9.24Z"/>
<path class="a" d="M130.73,56.4a6.28,6.28,0,0,1-4.36,1.44,5.91,5.91,0,0,1-3.36-1,6.28,6.28,0,0,1-2.24-2.69,9.69,9.69,0,0,1-.79-4V48.07a9.66,9.66,0,0,1,.79-4A6.31,6.31,0,0,1,123,41.37a6.22,6.22,0,0,1,3.43-.95,6.86,6.86,0,0,1,3.11.65A5.16,5.16,0,0,1,131.66,43a7,7,0,0,1,.94,3h-1.43q-.55-4.31-4.71-4.31a4.59,4.59,0,0,0-2.69.8A5,5,0,0,0,122,44.68a8.74,8.74,0,0,0-.6,3.37v2.14a9,9,0,0,0,.58,3.34,5.09,5.09,0,0,0,1.7,2.28,4.35,4.35,0,0,0,2.67.82,4.79,4.79,0,0,0,3.36-1.06,5.19,5.19,0,0,0,1.44-3.25h1.43A6.12,6.12,0,0,1,130.73,56.4Z"/>
<path class="a" d="M151.15,40.65v17h-1.44V49.48H140v8.13h-1.43v-17H140v7.61h9.69V40.65Z"/>
<path class="a" d="M167.44,52.86h-7.71L158,57.61h-1.49l6.41-17h1.36l6.42,17h-1.49ZM167,51.64l-3.4-9.24-3.4,9.24Z"/>
<path class="a" d="M98.71,215.16v.15H97.17l-4.09-7.07H88.14v7.07H86.71v-17h5.51a7.44,7.44,0,0,1,3.07.58,4.37,4.37,0,0,1,2,1.7,5.09,5.09,0,0,1,.7,2.72,4.79,4.79,0,0,1-.44,2A4.55,4.55,0,0,1,96.31,207a5.26,5.26,0,0,1-1.85,1ZM92.54,207a4.37,4.37,0,0,0,2.18-.51,3.38,3.38,0,0,0,1.36-1.34,3.71,3.71,0,0,0,.46-1.83,3.86,3.86,0,0,0-.5-2,3.26,3.26,0,0,0-1.46-1.3,5.43,5.43,0,0,0-2.36-.46H88.14V207Z"/>
<path class="a" d="M116.39,209.84a5.94,5.94,0,0,1-.79,3.13,4.93,4.93,0,0,1-2.14,1.93,7.64,7.64,0,0,1-6.12,0,4.84,4.84,0,0,1-2.11-1.92,6,6,0,0,1-.77-3.14V198.35h1.42v11.49a4.8,4.8,0,0,0,.58,2.45,3.69,3.69,0,0,0,1.6,1.53,5.21,5.21,0,0,0,2.35.51,5.29,5.29,0,0,0,2.37-.51,3.74,3.74,0,0,0,1.6-1.53,4.91,4.91,0,0,0,.57-2.45V198.35h1.44Zm-7.7-15.14a.87.87,0,0,1,.27.67.9.9,0,0,1-.27.66.93.93,0,0,1-.7.27.89.89,0,0,1-1-.93.89.89,0,0,1,1-.93A.92.92,0,0,1,108.69,194.7Zm5.1,0a1,1,0,0,1,.26.68.9.9,0,0,1-.26.66,1,1,0,0,1-.71.26.94.94,0,0,1-.69-.26.9.9,0,0,1-.27-.66.93.93,0,0,1,.27-.68.9.9,0,0,1,.69-.26A.94.94,0,0,1,113.79,194.7Z"/>
<path class="a" d="M134.05,214.1v1.21H123.51v-17H134v1.22h-9.05V206h7.92v1.22h-7.92v6.92Z"/>
<path class="a" d="M148.62,199.31a6.56,6.56,0,0,1,2.57,2.7,8.62,8.62,0,0,1,.92,4v1.56a8.57,8.57,0,0,1-.92,4,6.55,6.55,0,0,1-2.58,2.71,7.67,7.67,0,0,1-3.84.95h-4.63v-17h4.74A7.28,7.28,0,0,1,148.62,199.31Zm2.07,6.72a7.63,7.63,0,0,0-.72-3.4,5.33,5.33,0,0,0-2-2.26,5.78,5.78,0,0,0-3.05-.8h-3.31V214.1h3.2a5.88,5.88,0,0,0,3.14-.82A5.36,5.36,0,0,0,150,211a7.61,7.61,0,0,0,.72-3.39Z"/>
<path class="a" d="M169.29,214.1v1.21H158.75v-17h10.48v1.22h-9V206h7.92v1.22h-7.92v6.92Z"/>
<path class="b" d="M16.55,146.94a4.45,4.45,0,0,1-1.79,1.92,5.31,5.31,0,0,1-2.65.64,5.39,5.39,0,0,1-2.69-.68,4.21,4.21,0,0,1-1.69-1.95,7.39,7.39,0,0,1-.57-3.13l0-4.34-6.91-.06V137.9l17,.16-.05,5.77A7,7,0,0,1,16.55,146.94Zm-7.17,0a3.64,3.64,0,0,0,2.71,1.08,4.18,4.18,0,0,0,2-.43,3.34,3.34,0,0,0,1.4-1.41,5,5,0,0,0,.54-2.4l0-4.34-7.61-.07,0,4.34A4.53,4.53,0,0,0,9.38,147Z"/>
<path class="b" d="M24.49,184.1,8.36,189.32,7.91,188l7.74-2.5-3-9.22-7.74,2.5-.44-1.36,16.13-5.23.45,1.37-7.24,2.34,3,9.22,7.24-2.34Z"/>
<path class="b" d="M31.74,222.94a6.06,6.06,0,0,1-6.41-2.45A6.2,6.2,0,0,1,24,217.14a6.31,6.31,0,0,1,.8-3.49,9.65,9.65,0,0,1,2.81-3.12l1.46-1.09a9.59,9.59,0,0,1,3.78-1.79,6.35,6.35,0,0,1,3.58.23,6.19,6.19,0,0,1,2.83,2.2,6.11,6.11,0,0,1,.51,6.85A9.64,9.64,0,0,1,37,220l-1.46,1.09A9.89,9.89,0,0,1,31.74,222.94Zm6.84-6.61a5.09,5.09,0,0,0,.74-2.79,4.79,4.79,0,0,0-1-2.71A4.72,4.72,0,0,0,36,209.1a5,5,0,0,0-2.89-.09A9.1,9.1,0,0,0,30,210.58l-1.48,1.1a8.79,8.79,0,0,0-2.41,2.58,5,5,0,0,0-.75,2.79,4.75,4.75,0,0,0,1,2.69,4.82,4.82,0,0,0,2.31,1.77,4.89,4.89,0,0,0,2.87.07A9.12,9.12,0,0,0,34.68,220l1.48-1.1A9,9,0,0,0,38.58,216.33Z"/>
<path class="b" d="M68.3,239.14l-4.73-3.38-9.14,12.81-1.16-.83,9.15-12.8-4.73-3.38.71-1,5.88,4.21L69,238.14Z"/>
<path class="b" d="M96,264.34a6.08,6.08,0,0,1-6.63,1.78,6.14,6.14,0,0,1-4.41-5.27,9.63,9.63,0,0,1,.45-4.17l.55-1.73a9.74,9.74,0,0,1,2-3.67,6.32,6.32,0,0,1,3-1.91,6.33,6.33,0,0,1,8,5.39,9.83,9.83,0,0,1-.46,4.17L98,260.66A9.84,9.84,0,0,1,96,264.34ZM97.61,255a5,5,0,0,0-1-2.69,4.86,4.86,0,0,0-2.42-1.6,4.75,4.75,0,0,0-2.86-.07,5.07,5.07,0,0,0-2.39,1.62,8.69,8.69,0,0,0-1.63,3.12l-.56,1.75a9,9,0,0,0-.45,3.51,5.16,5.16,0,0,0,1,2.71,4.82,4.82,0,0,0,2.39,1.59A4.69,4.69,0,0,0,95,263.38a9.34,9.34,0,0,0,1.62-3.15l.56-1.75A8.91,8.91,0,0,0,97.61,255Z"/>
<path class="b" d="M135.32,270.78a6.82,6.82,0,0,1-1.93.91,10,10,0,0,1-2.85.4,6.58,6.58,0,0,1-3.55-.89,6.41,6.41,0,0,1-2.45-2.67,9.14,9.14,0,0,1-.93-4.07l0-2.06a9.46,9.46,0,0,1,.73-4,6,6,0,0,1,2.24-2.69,6.41,6.41,0,0,1,3.49-1,7.08,7.08,0,0,1,3.14.59,5.07,5.07,0,0,1,2.07,1.74,6.05,6.05,0,0,1,1,2.58l-1.43,0a4.7,4.7,0,0,0-1.45-2.72,4.62,4.62,0,0,0-3.28-1,4.79,4.79,0,0,0-2.78.83,4.86,4.86,0,0,0-1.71,2.26,8.53,8.53,0,0,0-.55,3.36l0,2.09a8.28,8.28,0,0,0,.72,3.42,5.2,5.2,0,0,0,1.91,2.26,5,5,0,0,0,2.84.76,8.75,8.75,0,0,0,2.11-.26,5.6,5.6,0,0,0,1.48-.6,2.77,2.77,0,0,0,.84-.69l-.07-4.38-4.55.07,0-1.22,6-.09.09,6A4.26,4.26,0,0,1,135.32,270.78Z"/>
<path class="b" d="M176.41,262.38l.05.14L175,263l-6.2-5.31-4.66,1.64,2.34,6.67-1.35.47-5.62-16,5.19-1.83a7.65,7.65,0,0,1,3.08-.47,4.35,4.35,0,0,1,2.45,1,5,5,0,0,1,1.56,2.33,4.82,4.82,0,0,1,.27,2.07,4.65,4.65,0,0,1-.64,1.91A5.16,5.16,0,0,1,170,257Zm-8.52-5.62a4.39,4.39,0,0,0,1.89-1.21,3.32,3.32,0,0,0,.84-1.72,3.75,3.75,0,0,0-.17-1.87,3.9,3.9,0,0,0-1.14-1.74,3.29,3.29,0,0,0-1.82-.74,5.47,5.47,0,0,0-2.37.35l-3.84,1.35,2.47,7Z"/>
<path class="b" d="M206.35,239l-6.1,4.71,1.53,4.83-1.18.91-5.31-17.33.83-.64.25-.19,15.45,9.48-1.18.91Zm-1.11-.69-8.34-5.23,3,9.39Z"/>
<path class="b" d="M222.27,203.74a4.46,4.46,0,0,1,2.55-.61,5.14,5.14,0,0,1,2.56,1,5.21,5.21,0,0,1,1.86,2,4.26,4.26,0,0,1,.33,2.56,7.56,7.56,0,0,1-1.27,2.92l-2.44,3.59,5.7,3.89-.8,1.18-14-9.55L220,206A6.89,6.89,0,0,1,222.27,203.74Zm6,3.94a3.62,3.62,0,0,0-1.66-2.41,4.2,4.2,0,0,0-1.86-.72,3.43,3.43,0,0,0-1.95.39,5.08,5.08,0,0,0-1.78,1.7l-2.44,3.59,6.28,4.28,2.45-3.59A4.46,4.46,0,0,0,228.25,207.68Z"/>
<path class="b" d="M236.3,168.42,252.62,173l-.39,1.38-7.83-2.21-2.64,9.32,7.82,2.22-.39,1.38-16.31-4.63.39-1.38,7.32,2.08,2.64-9.33-7.32-2.07Z"/>
<path class="b" d="M238.5,134l-.07-1.67L249.25,138l6.39-.28.07,1.43-6.39.28L239,146l-.08-1.69,9-5.54Z"/>
<path class="a" d="M256,129.2h-3.1c0-69.53-56-126.1-124.9-126.1S3.1,59.67,3.1,129.2H0C0,58,57.42,0,128,0S256,58,256,129.2Z"/>
</svg>